{"title":"Let the Bullets Fly [2010] BRRip XviD - CODY","uid":6692496,"size":944520077,"categoryP":"video","categoryS":"movies","magnet":"?xt=urn:btih:b53aa385dba8f3c9dc5400b58cf8fd187573cefd&amp;dn=Let+the+Bullets+Fly+%5B2010%5D+BRRip+XviD+-+CODY&amp;tr=udp%3A%2F%2Ftracker.openbittorrent.com%3A80&amp;tr=udp%3A%2F%2Fopen.demonii.com%3A1337&amp;tr=udp%3A%2F%2Ftracker.coppersurfer.tk%3A6969&amp;tr=udp%3A%2F%2Fexodus.desync.com%3A6969","seeders":0,"leechers":0,"uploader":"CODYBOSS1969","files":5,"time":1316649144,"description":"General\nComplete name                    : Let the Bullets Fly [2010] BRRip XviD - CODY.avi\nFormat                           : AVI\nFormat/Info                      : Audio Video Interleave\nFile size                        : 900 MiB\nDuration                         : 2h 12mn\nOverall bit rate                 : 953 Kbps\nWriting application              : VirtualDubMod 1.5.10.2 (build 2540/release)\nWriting library                  : VirtualDubMod build 2540/release\n\nVideo\nID                               : 0\nFormat                           : MPEG-4 Visual\nFormat profile                   : Advanced Simple@L5\nFormat settings, BVOP            : 4\nFormat settings, QPel            : No\nFormat settings, GMC             : No warppoints\nFormat settings, Matrix          : Default (H.263)\nMuxing mode                      : Packed bitstream\nCodec ID                         : XVID\nCodec ID/Hint                    : XviD\nDuration                         : 2h 12mn\nBit rate                         : 815 Kbps\nWidth                            : 720 pixels\nHeight                           : 304 pixels\nDisplay aspect ratio             : 2.35:1\nFrame rate                       : 24.000 fps\nColor space                      : YUV\nChroma subsampling               : 4:2:0\nBit depth                        : 8 bits\nScan type                        : Progressive\nCompression mode                 : Lossy\nBits/(Pixel*Frame)               : 0.155\nStream size                      : 771 MiB (86%)\nWriting library                  : XviD 1.2.0.dev47 (UTC 2006-11-01)\n\nAudio\nID                               : 1\nFormat                           : MPEG Audio\nFormat version                   : Version 1\nFormat profile                   : Layer 3\nCodec ID                         : 55\nCodec ID/Hint                    : MP3\nDuration                         : 2h 12mn\nBit rate mode                    : Constant\nBit rate                         : 128 Kbps\nChannel(s)                       : 2 channels\nSampling rate                    : 48.0 KHz\nCompression mode                 : Lossy\nStream size                      : 121 MiB (13%)\nAlignment                        : Aligned on interleaves\nInterleave, duration             : 42 ms (1.00 video frame)\nInterleave, preload duration     : 504 ms\nWriting library                  : LAME3.97 \nEncoding settings                : -m s -V 4 -q 2 -lowpass 17 -b 128\n\n\n\n\n\nIMDB link:                        &lt;a href=&quot; http://www.imdb.com/title/tt1533117/&quot; rel=&quot;nofollow&quot; target=&quot;_NEW&quot;&gt; http://www.imdb.com/title/tt1533117/&lt;/a&gt;\n\n\n\n\nSubtitles included               : English, Romanian\n\n\n\n\nPlease seed at least 1,5:1. This way this torrent has a chance to survive !\n\n\n\n\nThanks. Enjoy !!\n","torrent":{"xt":"urn:btih:b53aa385dba8f3c9dc5400b58cf8fd187573cefd","amp;dn":"Let+the+Bullets+Fly+%5B2010%5D+BRRip+XviD+-+CODY","amp;tr":["udp%3A%2F%2Ftracker.openbittorrent.com%3A80","udp%3A%2F%2Fopen.demonii.com%3A1337","udp%3A%2F%2Ftracker.coppersurfer.tk%3A6969","udp%3A%2F%2Fexodus.desync.com%3A6969"],"infoHash":"b53aa385dba8f3c9dc5400b58cf8fd187573cefd","infoHashBuffer":{"type":"Buffer","data":[181,58,163,133,219,168,243,201,220,84,0,181,140,248,253,24,117,115,206,253]},"announce":[],"urlList":[]}}